<mxfile host="Electron" agent="Mozilla/5.0 (Windows NT 10.0; Win64; x64) AppleWebKit/537.36 (KHTML, like Gecko) draw.io/24.7.5 Chrome/126.0.6478.183 Electron/31.3.0 Safari/537.36" version="24.7.5" pages="2">
  <diagram name="database" id="_4Pdv6bVFEky_Y5m1cdI">
    <mxGraphModel dx="1434" dy="836" grid="1" gridSize="10" guides="1" tooltips="1" connect="1" arrows="1" fold="1" page="1" pageScale="1" pageWidth="850" pageHeight="1100" math="0" shadow="0">
      <root>
        <mxCell id="0" />
        <mxCell id="1" parent="0" />
        <mxCell id="v_em0j9-qU_CIVtAfDKQ-2" value="User" style="swimlane;fontStyle=0;childLayout=stackLayout;horizontal=1;startSize=26;fillColor=none;horizontalStack=0;resizeParent=1;resizeParentMax=0;resizeLast=0;collapsible=1;marginBottom=0;whiteSpace=wrap;html=1;" parent="1" vertex="1">
          <mxGeometry x="40" y="20" width="170" height="156" as="geometry">
            <mxRectangle x="40" y="20" width="70" height="30" as="alternateBounds" />
          </mxGeometry>
        </mxCell>
        <mxCell id="v_em0j9-qU_CIVtAfDKQ-4" value="Email*&lt;span style=&quot;white-space: pre;&quot;&gt;&#x9;&lt;/span&gt;&lt;span style=&quot;white-space: pre;&quot;&gt;&#x9;&lt;/span&gt;&lt;span style=&quot;white-space: pre;&quot;&gt;&#x9;&lt;/span&gt;String" style="text;strokeColor=none;fillColor=none;align=left;verticalAlign=top;spacingLeft=4;spacingRight=4;overflow=hidden;rotatable=0;points=[[0,0.5],[1,0.5]];portConstraint=eastwest;whiteSpace=wrap;html=1;" parent="v_em0j9-qU_CIVtAfDKQ-2" vertex="1">
          <mxGeometry y="26" width="170" height="26" as="geometry" />
        </mxCell>
        <mxCell id="v_em0j9-qU_CIVtAfDKQ-5" value="Password&lt;span style=&quot;white-space: pre;&quot;&gt;&#x9;&lt;/span&gt;&lt;span style=&quot;white-space: pre;&quot;&gt;&#x9;&lt;/span&gt;String" style="text;strokeColor=none;fillColor=none;align=left;verticalAlign=top;spacingLeft=4;spacingRight=4;overflow=hidden;rotatable=0;points=[[0,0.5],[1,0.5]];portConstraint=eastwest;whiteSpace=wrap;html=1;" parent="v_em0j9-qU_CIVtAfDKQ-2" vertex="1">
          <mxGeometry y="52" width="170" height="26" as="geometry" />
        </mxCell>
        <mxCell id="v_em0j9-qU_CIVtAfDKQ-6" value="Name&lt;span style=&quot;white-space: pre;&quot;&gt;&#x9;&lt;/span&gt;&lt;span style=&quot;white-space: pre;&quot;&gt;&#x9;&lt;/span&gt;&lt;span style=&quot;white-space: pre;&quot;&gt;&#x9;&lt;/span&gt;String" style="text;strokeColor=none;fillColor=none;align=left;verticalAlign=top;spacingLeft=4;spacingRight=4;overflow=hidden;rotatable=0;points=[[0,0.5],[1,0.5]];portConstraint=eastwest;whiteSpace=wrap;html=1;" parent="v_em0j9-qU_CIVtAfDKQ-2" vertex="1">
          <mxGeometry y="78" width="170" height="26" as="geometry" />
        </mxCell>
        <mxCell id="v_em0j9-qU_CIVtAfDKQ-7" value="CoinHolding[{}]&lt;span style=&quot;white-space: pre;&quot;&gt;&#x9;&lt;/span&gt;ObjectId" style="text;strokeColor=none;fillColor=none;align=left;verticalAlign=top;spacingLeft=4;spacingRight=4;overflow=hidden;rotatable=0;points=[[0,0.5],[1,0.5]];portConstraint=eastwest;whiteSpace=wrap;html=1;" parent="v_em0j9-qU_CIVtAfDKQ-2" vertex="1">
          <mxGeometry y="104" width="170" height="26" as="geometry" />
        </mxCell>
        <mxCell id="v_em0j9-qU_CIVtAfDKQ-32" value="TotalInvested&lt;span style=&quot;white-space: pre;&quot;&gt;&#x9;&lt;/span&gt;&lt;span style=&quot;white-space: pre;&quot;&gt;&#x9;&lt;/span&gt;Double" style="text;strokeColor=none;fillColor=none;align=left;verticalAlign=top;spacingLeft=4;spacingRight=4;overflow=hidden;rotatable=0;points=[[0,0.5],[1,0.5]];portConstraint=eastwest;whiteSpace=wrap;html=1;" parent="v_em0j9-qU_CIVtAfDKQ-2" vertex="1">
          <mxGeometry y="130" width="170" height="26" as="geometry" />
        </mxCell>
        <mxCell id="v_em0j9-qU_CIVtAfDKQ-8" value="CoinHolding" style="swimlane;fontStyle=0;childLayout=stackLayout;horizontal=1;startSize=26;fillColor=none;horizontalStack=0;resizeParent=1;resizeParentMax=0;resizeLast=0;collapsible=1;marginBottom=0;whiteSpace=wrap;html=1;" parent="1" vertex="1">
          <mxGeometry x="290" y="20" width="170" height="208" as="geometry">
            <mxRectangle x="40" y="20" width="70" height="30" as="alternateBounds" />
          </mxGeometry>
        </mxCell>
        <mxCell id="v_em0j9-qU_CIVtAfDKQ-9" value="Id*&lt;span style=&quot;white-space: pre;&quot;&gt;&#x9;&lt;/span&gt;&lt;span style=&quot;white-space: pre;&quot;&gt;&#x9;&lt;/span&gt;&lt;span style=&quot;white-space: pre;&quot;&gt;&#x9;&lt;/span&gt;&lt;span style=&quot;white-space: pre;&quot;&gt;&#x9;&lt;/span&gt;ObjectId" style="text;strokeColor=none;fillColor=none;align=left;verticalAlign=top;spacingLeft=4;spacingRight=4;overflow=hidden;rotatable=0;points=[[0,0.5],[1,0.5]];portConstraint=eastwest;whiteSpace=wrap;html=1;" parent="v_em0j9-qU_CIVtAfDKQ-8" vertex="1">
          <mxGeometry y="26" width="170" height="26" as="geometry" />
        </mxCell>
        <mxCell id="v_em0j9-qU_CIVtAfDKQ-13" value="HoldingValue&lt;span style=&quot;white-space: pre;&quot;&gt;&#x9;&lt;/span&gt;&lt;span style=&quot;white-space: pre;&quot;&gt;&#x9;&lt;/span&gt;Double" style="text;strokeColor=none;fillColor=none;align=left;verticalAlign=top;spacingLeft=4;spacingRight=4;overflow=hidden;rotatable=0;points=[[0,0.5],[1,0.5]];portConstraint=eastwest;whiteSpace=wrap;html=1;" parent="v_em0j9-qU_CIVtAfDKQ-8" vertex="1">
          <mxGeometry y="52" width="170" height="26" as="geometry" />
        </mxCell>
        <mxCell id="v_em0j9-qU_CIVtAfDKQ-14" value="HoldingUnit&lt;span style=&quot;white-space: pre;&quot;&gt;&#x9;&lt;/span&gt;&lt;span style=&quot;white-space: pre;&quot;&gt;&#x9;&lt;/span&gt;Double" style="text;strokeColor=none;fillColor=none;align=left;verticalAlign=top;spacingLeft=4;spacingRight=4;overflow=hidden;rotatable=0;points=[[0,0.5],[1,0.5]];portConstraint=eastwest;whiteSpace=wrap;html=1;" parent="v_em0j9-qU_CIVtAfDKQ-8" vertex="1">
          <mxGeometry y="78" width="170" height="26" as="geometry" />
        </mxCell>
        <mxCell id="v_em0j9-qU_CIVtAfDKQ-17" value="TotalCost&lt;span style=&quot;white-space: pre;&quot;&gt;&#x9;&lt;/span&gt;&lt;span style=&quot;white-space: pre;&quot;&gt;&#x9;&lt;/span&gt;&lt;span style=&quot;white-space: pre;&quot;&gt;&#x9;&lt;/span&gt;Double" style="text;strokeColor=none;fillColor=none;align=left;verticalAlign=top;spacingLeft=4;spacingRight=4;overflow=hidden;rotatable=0;points=[[0,0.5],[1,0.5]];portConstraint=eastwest;whiteSpace=wrap;html=1;" parent="v_em0j9-qU_CIVtAfDKQ-8" vertex="1">
          <mxGeometry y="104" width="170" height="26" as="geometry" />
        </mxCell>
        <mxCell id="v_em0j9-qU_CIVtAfDKQ-16" value="AvgCost&lt;span style=&quot;white-space: pre;&quot;&gt;&#x9;&lt;/span&gt;&lt;span style=&quot;white-space: pre;&quot;&gt;&#x9;&lt;/span&gt;&lt;span style=&quot;white-space: pre;&quot;&gt;&#x9;&lt;/span&gt;Double" style="text;strokeColor=none;fillColor=none;align=left;verticalAlign=top;spacingLeft=4;spacingRight=4;overflow=hidden;rotatable=0;points=[[0,0.5],[1,0.5]];portConstraint=eastwest;whiteSpace=wrap;html=1;" parent="v_em0j9-qU_CIVtAfDKQ-8" vertex="1">
          <mxGeometry y="130" width="170" height="26" as="geometry" />
        </mxCell>
        <mxCell id="v_em0j9-qU_CIVtAfDKQ-15" value="ProfitLoss&lt;span style=&quot;white-space: pre;&quot;&gt;&#x9;&lt;/span&gt;&lt;span style=&quot;white-space: pre;&quot;&gt;&#x9;&lt;/span&gt;Double" style="text;strokeColor=none;fillColor=none;align=left;verticalAlign=top;spacingLeft=4;spacingRight=4;overflow=hidden;rotatable=0;points=[[0,0.5],[1,0.5]];portConstraint=eastwest;whiteSpace=wrap;html=1;" parent="v_em0j9-qU_CIVtAfDKQ-8" vertex="1">
          <mxGeometry y="156" width="170" height="26" as="geometry" />
        </mxCell>
        <mxCell id="v_em0j9-qU_CIVtAfDKQ-18" value="Transaction[{}]&lt;span style=&quot;white-space: pre;&quot;&gt;&#x9;&lt;/span&gt;&lt;span style=&quot;white-space: pre;&quot;&gt;&#x9;&lt;/span&gt;ObjectId" style="text;strokeColor=none;fillColor=none;align=left;verticalAlign=top;spacingLeft=4;spacingRight=4;overflow=hidden;rotatable=0;points=[[0,0.5],[1,0.5]];portConstraint=eastwest;whiteSpace=wrap;html=1;" parent="v_em0j9-qU_CIVtAfDKQ-8" vertex="1">
          <mxGeometry y="182" width="170" height="26" as="geometry" />
        </mxCell>
        <mxCell id="v_em0j9-qU_CIVtAfDKQ-19" style="edgeStyle=orthogonalEdgeStyle;rounded=0;orthogonalLoop=1;jettySize=auto;html=1;exitX=1;exitY=0.5;exitDx=0;exitDy=0;entryX=0;entryY=0.5;entryDx=0;entryDy=0;" parent="1" source="v_em0j9-qU_CIVtAfDKQ-7" target="v_em0j9-qU_CIVtAfDKQ-9" edge="1">
          <mxGeometry relative="1" as="geometry" />
        </mxCell>
        <mxCell id="v_em0j9-qU_CIVtAfDKQ-20" value="1" style="edgeLabel;html=1;align=center;verticalAlign=middle;resizable=0;points=[];" parent="v_em0j9-qU_CIVtAfDKQ-19" vertex="1" connectable="0">
          <mxGeometry x="-0.8539" y="3" relative="1" as="geometry">
            <mxPoint y="3" as="offset" />
          </mxGeometry>
        </mxCell>
        <mxCell id="v_em0j9-qU_CIVtAfDKQ-21" value="N" style="edgeLabel;html=1;align=center;verticalAlign=middle;resizable=0;points=[];" parent="v_em0j9-qU_CIVtAfDKQ-19" vertex="1" connectable="0">
          <mxGeometry x="0.7159" y="2" relative="1" as="geometry">
            <mxPoint x="5" as="offset" />
          </mxGeometry>
        </mxCell>
        <mxCell id="v_em0j9-qU_CIVtAfDKQ-22" value="Transaction" style="swimlane;fontStyle=0;childLayout=stackLayout;horizontal=1;startSize=26;fillColor=none;horizontalStack=0;resizeParent=1;resizeParentMax=0;resizeLast=0;collapsible=1;marginBottom=0;whiteSpace=wrap;html=1;" parent="1" vertex="1">
          <mxGeometry x="540" y="20" width="170" height="156" as="geometry" />
        </mxCell>
        <mxCell id="v_em0j9-qU_CIVtAfDKQ-23" value="Id*&lt;span style=&quot;white-space: pre;&quot;&gt;&#x9;&lt;/span&gt;&lt;span style=&quot;white-space: pre;&quot;&gt;&#x9;&lt;/span&gt;&lt;span style=&quot;white-space: pre;&quot;&gt;&#x9;&lt;span style=&quot;white-space: pre;&quot;&gt;&#x9;&lt;/span&gt;ObjectId&lt;/span&gt;" style="text;strokeColor=none;fillColor=none;align=left;verticalAlign=top;spacingLeft=4;spacingRight=4;overflow=hidden;rotatable=0;points=[[0,0.5],[1,0.5]];portConstraint=eastwest;whiteSpace=wrap;html=1;" parent="v_em0j9-qU_CIVtAfDKQ-22" vertex="1">
          <mxGeometry y="26" width="170" height="26" as="geometry" />
        </mxCell>
        <mxCell id="v_em0j9-qU_CIVtAfDKQ-24" value="Type&lt;span style=&quot;white-space: pre;&quot;&gt;&#x9;&lt;/span&gt;&lt;span style=&quot;white-space: pre;&quot;&gt;&#x9;&lt;/span&gt;&lt;span style=&quot;white-space: pre;&quot;&gt;&#x9;&lt;/span&gt;String" style="text;strokeColor=none;fillColor=none;align=left;verticalAlign=top;spacingLeft=4;spacingRight=4;overflow=hidden;rotatable=0;points=[[0,0.5],[1,0.5]];portConstraint=eastwest;whiteSpace=wrap;html=1;" parent="v_em0j9-qU_CIVtAfDKQ-22" vertex="1">
          <mxGeometry y="52" width="170" height="26" as="geometry" />
        </mxCell>
        <mxCell id="v_em0j9-qU_CIVtAfDKQ-25" value="Price&lt;span style=&quot;white-space: pre;&quot;&gt;&#x9;&lt;/span&gt;&lt;span style=&quot;white-space: pre;&quot;&gt;&#x9;&lt;/span&gt;&lt;span style=&quot;white-space: pre;&quot;&gt;&#x9;&lt;/span&gt;Double" style="text;strokeColor=none;fillColor=none;align=left;verticalAlign=top;spacingLeft=4;spacingRight=4;overflow=hidden;rotatable=0;points=[[0,0.5],[1,0.5]];portConstraint=eastwest;whiteSpace=wrap;html=1;" parent="v_em0j9-qU_CIVtAfDKQ-22" vertex="1">
          <mxGeometry y="78" width="170" height="26" as="geometry" />
        </mxCell>
        <mxCell id="v_em0j9-qU_CIVtAfDKQ-28" value="DateTime&lt;span style=&quot;white-space: pre;&quot;&gt;&#x9;&lt;/span&gt;&lt;span style=&quot;white-space: pre;&quot;&gt;&#x9;&lt;/span&gt;&lt;span style=&quot;white-space: pre;&quot;&gt;&#x9;&lt;/span&gt;Date" style="text;strokeColor=none;fillColor=none;align=left;verticalAlign=top;spacingLeft=4;spacingRight=4;overflow=hidden;rotatable=0;points=[[0,0.5],[1,0.5]];portConstraint=eastwest;whiteSpace=wrap;html=1;" parent="v_em0j9-qU_CIVtAfDKQ-22" vertex="1">
          <mxGeometry y="104" width="170" height="26" as="geometry" />
        </mxCell>
        <mxCell id="v_em0j9-qU_CIVtAfDKQ-27" value="Cost&lt;span style=&quot;white-space: pre;&quot;&gt;&#x9;&lt;/span&gt;&lt;span style=&quot;white-space: pre;&quot;&gt;&#x9;&lt;/span&gt;&lt;span style=&quot;white-space: pre;&quot;&gt;&#x9;&lt;/span&gt;&lt;span style=&quot;white-space: pre;&quot;&gt;&#x9;&lt;/span&gt;Double" style="text;strokeColor=none;fillColor=none;align=left;verticalAlign=top;spacingLeft=4;spacingRight=4;overflow=hidden;rotatable=0;points=[[0,0.5],[1,0.5]];portConstraint=eastwest;whiteSpace=wrap;html=1;" parent="v_em0j9-qU_CIVtAfDKQ-22" vertex="1">
          <mxGeometry y="130" width="170" height="26" as="geometry" />
        </mxCell>
        <mxCell id="v_em0j9-qU_CIVtAfDKQ-29" style="edgeStyle=orthogonalEdgeStyle;rounded=0;orthogonalLoop=1;jettySize=auto;html=1;exitX=1;exitY=0.5;exitDx=0;exitDy=0;entryX=0;entryY=0.5;entryDx=0;entryDy=0;" parent="1" source="v_em0j9-qU_CIVtAfDKQ-18" target="v_em0j9-qU_CIVtAfDKQ-23" edge="1">
          <mxGeometry relative="1" as="geometry" />
        </mxCell>
        <mxCell id="v_em0j9-qU_CIVtAfDKQ-30" value="1" style="edgeLabel;html=1;align=center;verticalAlign=middle;resizable=0;points=[];" parent="v_em0j9-qU_CIVtAfDKQ-29" vertex="1" connectable="0">
          <mxGeometry x="-0.8269" relative="1" as="geometry">
            <mxPoint as="offset" />
          </mxGeometry>
        </mxCell>
        <mxCell id="v_em0j9-qU_CIVtAfDKQ-31" value="N" style="edgeLabel;html=1;align=center;verticalAlign=middle;resizable=0;points=[];" parent="v_em0j9-qU_CIVtAfDKQ-29" vertex="1" connectable="0">
          <mxGeometry x="0.7954" y="2" relative="1" as="geometry">
            <mxPoint as="offset" />
          </mxGeometry>
        </mxCell>
      </root>
    </mxGraphModel>
  </diagram>
  <diagram id="QF9IWLoaMlFSEecvju_Z" name="Authentication and Authorization">
    <mxGraphModel dx="1195" dy="697" grid="1" gridSize="10" guides="1" tooltips="1" connect="1" arrows="1" fold="1" page="1" pageScale="1" pageWidth="850" pageHeight="1100" math="0" shadow="0">
      <root>
        <mxCell id="0" />
        <mxCell id="1" parent="0" />
        <mxCell id="D1fy346i7m5_XP-VBtUc-114" value="" style="rounded=0;whiteSpace=wrap;html=1;labelBackgroundColor=none;labelBorderColor=none;textShadow=0;fillColor=#f5f7fd;" vertex="1" parent="1">
          <mxGeometry width="850" height="520" as="geometry" />
        </mxCell>
        <mxCell id="D1fy346i7m5_XP-VBtUc-8" value="" style="endArrow=none;dashed=1;html=1;rounded=0;" edge="1" parent="1" source="D1fy346i7m5_XP-VBtUc-19">
          <mxGeometry width="50" height="50" relative="1" as="geometry">
            <mxPoint x="275" y="385" as="sourcePoint" />
            <mxPoint x="274.66" y="75" as="targetPoint" />
          </mxGeometry>
        </mxCell>
        <mxCell id="D1fy346i7m5_XP-VBtUc-12" value="Client (ReactJS)" style="rounded=0;whiteSpace=wrap;html=1;" vertex="1" parent="1">
          <mxGeometry x="225" y="35" width="100" height="40" as="geometry" />
        </mxCell>
        <mxCell id="D1fy346i7m5_XP-VBtUc-15" value="" style="endArrow=none;dashed=1;html=1;rounded=0;" edge="1" parent="1" source="D1fy346i7m5_XP-VBtUc-32">
          <mxGeometry width="50" height="50" relative="1" as="geometry">
            <mxPoint x="475" y="385" as="sourcePoint" />
            <mxPoint x="474.66" y="75" as="targetPoint" />
          </mxGeometry>
        </mxCell>
        <mxCell id="D1fy346i7m5_XP-VBtUc-16" value="Server (NodeJS)" style="rounded=0;whiteSpace=wrap;html=1;" vertex="1" parent="1">
          <mxGeometry x="425" y="35" width="100" height="40" as="geometry" />
        </mxCell>
        <mxCell id="D1fy346i7m5_XP-VBtUc-17" value="" style="endArrow=none;dashed=1;html=1;rounded=0;" edge="1" parent="1" source="D1fy346i7m5_XP-VBtUc-38">
          <mxGeometry width="50" height="50" relative="1" as="geometry">
            <mxPoint x="675" y="385" as="sourcePoint" />
            <mxPoint x="674.6600000000001" y="75" as="targetPoint" />
          </mxGeometry>
        </mxCell>
        <mxCell id="D1fy346i7m5_XP-VBtUc-18" value="Database (MongoDB)" style="rounded=0;whiteSpace=wrap;html=1;" vertex="1" parent="1">
          <mxGeometry x="625" y="35" width="100" height="40" as="geometry" />
        </mxCell>
        <mxCell id="D1fy346i7m5_XP-VBtUc-20" value="" style="endArrow=none;dashed=1;html=1;rounded=0;" edge="1" parent="1" target="D1fy346i7m5_XP-VBtUc-19">
          <mxGeometry width="50" height="50" relative="1" as="geometry">
            <mxPoint x="275" y="385" as="sourcePoint" />
            <mxPoint x="274.66" y="75" as="targetPoint" />
          </mxGeometry>
        </mxCell>
        <mxCell id="D1fy346i7m5_XP-VBtUc-35" style="edgeStyle=orthogonalEdgeStyle;rounded=0;orthogonalLoop=1;jettySize=auto;html=1;exitX=1;exitY=0.25;exitDx=0;exitDy=0;entryX=0;entryY=0;entryDx=0;entryDy=0;" edge="1" parent="1" source="D1fy346i7m5_XP-VBtUc-19" target="D1fy346i7m5_XP-VBtUc-32">
          <mxGeometry relative="1" as="geometry">
            <Array as="points">
              <mxPoint x="415" y="125" />
              <mxPoint x="415" y="125" />
            </Array>
          </mxGeometry>
        </mxCell>
        <mxCell id="D1fy346i7m5_XP-VBtUc-19" value="" style="rounded=0;whiteSpace=wrap;html=1;" vertex="1" parent="1">
          <mxGeometry x="265" y="105" width="20" height="340" as="geometry" />
        </mxCell>
        <mxCell id="D1fy346i7m5_XP-VBtUc-21" value="" style="endArrow=classic;html=1;rounded=0;" edge="1" parent="1">
          <mxGeometry width="50" height="50" relative="1" as="geometry">
            <mxPoint x="120" y="105" as="sourcePoint" />
            <mxPoint x="265" y="105" as="targetPoint" />
          </mxGeometry>
        </mxCell>
        <mxCell id="D1fy346i7m5_XP-VBtUc-33" value="" style="endArrow=none;dashed=1;html=1;rounded=0;" edge="1" parent="1" source="D1fy346i7m5_XP-VBtUc-69" target="D1fy346i7m5_XP-VBtUc-32">
          <mxGeometry width="50" height="50" relative="1" as="geometry">
            <mxPoint x="475" y="385" as="sourcePoint" />
            <mxPoint x="474.66" y="75" as="targetPoint" />
          </mxGeometry>
        </mxCell>
        <mxCell id="D1fy346i7m5_XP-VBtUc-40" style="edgeStyle=orthogonalEdgeStyle;rounded=0;orthogonalLoop=1;jettySize=auto;html=1;exitX=1;exitY=0.25;exitDx=0;exitDy=0;entryX=0;entryY=0;entryDx=0;entryDy=0;" edge="1" parent="1" source="D1fy346i7m5_XP-VBtUc-32" target="D1fy346i7m5_XP-VBtUc-38">
          <mxGeometry relative="1" as="geometry">
            <Array as="points">
              <mxPoint x="625" y="145" />
              <mxPoint x="625" y="145" />
            </Array>
          </mxGeometry>
        </mxCell>
        <mxCell id="D1fy346i7m5_XP-VBtUc-32" value="" style="rounded=0;whiteSpace=wrap;html=1;" vertex="1" parent="1">
          <mxGeometry x="465" y="125" width="20" height="50" as="geometry" />
        </mxCell>
        <mxCell id="D1fy346i7m5_XP-VBtUc-39" value="" style="endArrow=none;dashed=1;html=1;rounded=0;" edge="1" parent="1" target="D1fy346i7m5_XP-VBtUc-38">
          <mxGeometry width="50" height="50" relative="1" as="geometry">
            <mxPoint x="675" y="385" as="sourcePoint" />
            <mxPoint x="674.6600000000001" y="75" as="targetPoint" />
          </mxGeometry>
        </mxCell>
        <mxCell id="D1fy346i7m5_XP-VBtUc-71" style="edgeStyle=orthogonalEdgeStyle;rounded=0;orthogonalLoop=1;jettySize=auto;html=1;exitX=0.064;exitY=0.91;exitDx=0;exitDy=0;exitPerimeter=0;dashed=1;" edge="1" parent="1" source="D1fy346i7m5_XP-VBtUc-38">
          <mxGeometry relative="1" as="geometry">
            <mxPoint x="486" y="244" as="targetPoint" />
            <Array as="points">
              <mxPoint x="486" y="244" />
            </Array>
          </mxGeometry>
        </mxCell>
        <mxCell id="D1fy346i7m5_XP-VBtUc-38" value="" style="rounded=0;whiteSpace=wrap;html=1;" vertex="1" parent="1">
          <mxGeometry x="665" y="145" width="20" height="300" as="geometry" />
        </mxCell>
        <mxCell id="D1fy346i7m5_XP-VBtUc-42" value="findOne(email)" style="text;html=1;align=center;verticalAlign=middle;whiteSpace=wrap;rounded=0;" vertex="1" parent="1">
          <mxGeometry x="525" y="125" width="110" height="20" as="geometry" />
        </mxCell>
        <mxCell id="D1fy346i7m5_XP-VBtUc-43" value="POST /register" style="text;html=1;align=center;verticalAlign=middle;whiteSpace=wrap;rounded=0;" vertex="1" parent="1">
          <mxGeometry x="335" y="95" width="90" height="30" as="geometry" />
        </mxCell>
        <mxCell id="D1fy346i7m5_XP-VBtUc-70" value="" style="endArrow=none;dashed=1;html=1;rounded=0;" edge="1" parent="1" target="D1fy346i7m5_XP-VBtUc-69">
          <mxGeometry width="50" height="50" relative="1" as="geometry">
            <mxPoint x="475" y="385" as="sourcePoint" />
            <mxPoint x="475" y="175" as="targetPoint" />
          </mxGeometry>
        </mxCell>
        <mxCell id="D1fy346i7m5_XP-VBtUc-69" value="" style="rounded=0;whiteSpace=wrap;html=1;" vertex="1" parent="1">
          <mxGeometry x="465" y="225" width="20" height="220" as="geometry" />
        </mxCell>
        <mxCell id="D1fy346i7m5_XP-VBtUc-72" value="null" style="text;html=1;align=center;verticalAlign=middle;whiteSpace=wrap;rounded=0;" vertex="1" parent="1">
          <mxGeometry x="518.75" y="218" width="112.5" height="30" as="geometry" />
        </mxCell>
        <mxCell id="D1fy346i7m5_XP-VBtUc-77" value="alt" style="shape=umlFrame;whiteSpace=wrap;html=1;pointerEvents=0;" vertex="1" parent="1">
          <mxGeometry x="120" y="205" width="625" height="270" as="geometry" />
        </mxCell>
        <mxCell id="D1fy346i7m5_XP-VBtUc-83" value="create(email)" style="text;html=1;align=center;verticalAlign=middle;whiteSpace=wrap;rounded=0;" vertex="1" parent="1">
          <mxGeometry x="525" y="250" width="100" height="30" as="geometry" />
        </mxCell>
        <mxCell id="D1fy346i7m5_XP-VBtUc-84" style="edgeStyle=orthogonalEdgeStyle;rounded=0;orthogonalLoop=1;jettySize=auto;html=1;exitX=1.007;exitY=0.642;exitDx=0;exitDy=0;exitPerimeter=0;" edge="1" parent="1" source="D1fy346i7m5_XP-VBtUc-38">
          <mxGeometry relative="1" as="geometry">
            <mxPoint x="685" y="305" as="targetPoint" />
            <Array as="points">
              <mxPoint x="705" y="280" />
              <mxPoint x="705" y="305" />
              <mxPoint x="685" y="305" />
            </Array>
          </mxGeometry>
        </mxCell>
        <mxCell id="D1fy346i7m5_XP-VBtUc-85" value="save()" style="text;html=1;align=center;verticalAlign=middle;whiteSpace=wrap;rounded=0;" vertex="1" parent="1">
          <mxGeometry x="703" y="275" width="45" height="30" as="geometry" />
        </mxCell>
        <mxCell id="D1fy346i7m5_XP-VBtUc-88" value="success" style="text;html=1;align=center;verticalAlign=middle;whiteSpace=wrap;rounded=0;" vertex="1" parent="1">
          <mxGeometry x="525" y="295" width="100" height="30" as="geometry" />
        </mxCell>
        <mxCell id="D1fy346i7m5_XP-VBtUc-90" value="success" style="text;html=1;align=center;verticalAlign=middle;whiteSpace=wrap;rounded=0;" vertex="1" parent="1">
          <mxGeometry x="325" y="305" width="100" height="30" as="geometry" />
        </mxCell>
        <mxCell id="D1fy346i7m5_XP-VBtUc-91" value="" style="endArrow=none;dashed=1;html=1;rounded=0;exitX=0.001;exitY=0.513;exitDx=0;exitDy=0;exitPerimeter=0;entryX=0.999;entryY=0.515;entryDx=0;entryDy=0;entryPerimeter=0;" edge="1" parent="1" source="D1fy346i7m5_XP-VBtUc-77" target="D1fy346i7m5_XP-VBtUc-77">
          <mxGeometry width="50" height="50" relative="1" as="geometry">
            <mxPoint x="255" y="395" as="sourcePoint" />
            <mxPoint x="305" y="345" as="targetPoint" />
            <Array as="points">
              <mxPoint x="470" y="345" />
            </Array>
          </mxGeometry>
        </mxCell>
        <mxCell id="D1fy346i7m5_XP-VBtUc-95" style="edgeStyle=orthogonalEdgeStyle;rounded=0;orthogonalLoop=1;jettySize=auto;html=1;dashed=1;" edge="1" parent="1">
          <mxGeometry relative="1" as="geometry">
            <mxPoint x="665" y="321" as="sourcePoint" />
            <mxPoint x="485" y="321" as="targetPoint" />
            <Array as="points">
              <mxPoint x="665" y="321" />
              <mxPoint x="575" y="321" />
            </Array>
          </mxGeometry>
        </mxCell>
        <mxCell id="D1fy346i7m5_XP-VBtUc-96" style="edgeStyle=orthogonalEdgeStyle;rounded=0;orthogonalLoop=1;jettySize=auto;html=1;dashed=1;" edge="1" parent="1">
          <mxGeometry relative="1" as="geometry">
            <mxPoint x="466" y="329.71" as="sourcePoint" />
            <mxPoint x="285" y="330" as="targetPoint" />
            <Array as="points">
              <mxPoint x="466" y="329.71" />
              <mxPoint x="376" y="329.71" />
            </Array>
          </mxGeometry>
        </mxCell>
        <mxCell id="D1fy346i7m5_XP-VBtUc-98" style="edgeStyle=orthogonalEdgeStyle;rounded=0;orthogonalLoop=1;jettySize=auto;html=1;dashed=1;" edge="1" parent="1">
          <mxGeometry relative="1" as="geometry">
            <mxPoint x="665" y="380" as="sourcePoint" />
            <mxPoint x="485" y="380" as="targetPoint" />
            <Array as="points">
              <mxPoint x="665" y="380" />
              <mxPoint x="575" y="380" />
            </Array>
          </mxGeometry>
        </mxCell>
        <mxCell id="D1fy346i7m5_XP-VBtUc-99" value="Email exists" style="text;html=1;align=center;verticalAlign=middle;whiteSpace=wrap;rounded=0;" vertex="1" parent="1">
          <mxGeometry x="525" y="355" width="100" height="30" as="geometry" />
        </mxCell>
        <mxCell id="D1fy346i7m5_XP-VBtUc-100" style="edgeStyle=orthogonalEdgeStyle;rounded=0;orthogonalLoop=1;jettySize=auto;html=1;exitX=0.981;exitY=0.215;exitDx=0;exitDy=0;exitPerimeter=0;entryX=-0.043;entryY=0.423;entryDx=0;entryDy=0;entryPerimeter=0;" edge="1" parent="1" source="D1fy346i7m5_XP-VBtUc-69" target="D1fy346i7m5_XP-VBtUc-38">
          <mxGeometry relative="1" as="geometry">
            <mxPoint x="660" y="267" as="targetPoint" />
          </mxGeometry>
        </mxCell>
        <mxCell id="D1fy346i7m5_XP-VBtUc-103" style="edgeStyle=orthogonalEdgeStyle;rounded=0;orthogonalLoop=1;jettySize=auto;html=1;dashed=1;" edge="1" parent="1">
          <mxGeometry relative="1" as="geometry">
            <mxPoint x="465" y="415" as="sourcePoint" />
            <mxPoint x="285" y="415" as="targetPoint" />
            <Array as="points">
              <mxPoint x="465" y="415" />
              <mxPoint x="375" y="415" />
            </Array>
          </mxGeometry>
        </mxCell>
        <mxCell id="D1fy346i7m5_XP-VBtUc-104" value="Error about used email" style="text;html=1;align=center;verticalAlign=middle;whiteSpace=wrap;rounded=0;" vertex="1" parent="1">
          <mxGeometry x="305" y="390" width="140" height="30" as="geometry" />
        </mxCell>
        <mxCell id="D1fy346i7m5_XP-VBtUc-105" value="Enter name, e&lt;span style=&quot;background-color: initial;&quot;&gt;mail,&lt;/span&gt;&lt;div style=&quot;text-wrap: nowrap;&quot;&gt;&lt;span style=&quot;text-wrap: wrap;&quot;&gt;password&lt;/span&gt;&lt;/div&gt;" style="text;html=1;align=center;verticalAlign=middle;whiteSpace=wrap;rounded=0;" vertex="1" parent="1">
          <mxGeometry x="130" y="110" width="120" height="30" as="geometry" />
        </mxCell>
        <mxCell id="D1fy346i7m5_XP-VBtUc-106" value="User" style="shape=umlActor;verticalLabelPosition=bottom;verticalAlign=top;html=1;outlineConnect=0;" vertex="1" parent="1">
          <mxGeometry x="90" y="45" width="30" height="60" as="geometry" />
        </mxCell>
        <mxCell id="D1fy346i7m5_XP-VBtUc-109" value="" style="endArrow=none;dashed=1;html=1;rounded=0;entryX=0.5;entryY=1;entryDx=0;entryDy=0;" edge="1" parent="1" target="D1fy346i7m5_XP-VBtUc-19">
          <mxGeometry width="50" height="50" relative="1" as="geometry">
            <mxPoint x="275" y="485" as="sourcePoint" />
            <mxPoint x="310" y="445" as="targetPoint" />
          </mxGeometry>
        </mxCell>
        <mxCell id="D1fy346i7m5_XP-VBtUc-110" value="" style="endArrow=none;dashed=1;html=1;rounded=0;entryX=0.5;entryY=1;entryDx=0;entryDy=0;" edge="1" parent="1">
          <mxGeometry width="50" height="50" relative="1" as="geometry">
            <mxPoint x="475" y="485" as="sourcePoint" />
            <mxPoint x="475" y="445" as="targetPoint" />
          </mxGeometry>
        </mxCell>
        <mxCell id="D1fy346i7m5_XP-VBtUc-111" value="" style="endArrow=none;dashed=1;html=1;rounded=0;entryX=0.5;entryY=1;entryDx=0;entryDy=0;" edge="1" parent="1">
          <mxGeometry width="50" height="50" relative="1" as="geometry">
            <mxPoint x="674.6600000000001" y="485" as="sourcePoint" />
            <mxPoint x="674.6600000000001" y="445" as="targetPoint" />
          </mxGeometry>
        </mxCell>
        <mxCell id="D1fy346i7m5_XP-VBtUc-112" value="[Email is unique]" style="text;html=1;align=left;verticalAlign=middle;whiteSpace=wrap;rounded=0;" vertex="1" parent="1">
          <mxGeometry x="120" y="315" width="112.5" height="30" as="geometry" />
        </mxCell>
        <mxCell id="D1fy346i7m5_XP-VBtUc-113" value="[Email was already used]" style="text;html=1;align=left;verticalAlign=middle;whiteSpace=wrap;rounded=0;" vertex="1" parent="1">
          <mxGeometry x="120" y="345" width="142.5" height="30" as="geometry" />
        </mxCell>
        <mxCell id="D1fy346i7m5_XP-VBtUc-116" value="Register" style="rounded=0;whiteSpace=wrap;html=1;" vertex="1" parent="1">
          <mxGeometry width="80" height="40" as="geometry" />
        </mxCell>
      </root>
    </mxGraphModel>
  </diagram>
</mxfile>
